# xmcd CD database file
#
# Track frame offsets:
#	150
#	27550
#	49520
#	53652
#	80022
#	102312
#	133685
#	136485
#	161950
#	186402
#	212450
#	228210
#	247382
#
# Disc length: 3360 seconds
#
# Revision: 3
# Processed by: cddbd v1.5.1PL2 Copyright (c) Steve Scherf et al.
# Submitted via: CDex 1.50
#
DISCID=bd0d1e0d
DTITLE=Perko-Pyysalo Poppoo - Garden of Time
DYEAR=1993
DGENRE=Jazz
TTITLE0=Bangladesh - Perko
TTITLE1=(Living on) The Harvest Coast - Perko
TTITLE2=G.O.T. - Perko
TTITLE3=What If - Pyysalo
TTITLE4=True Stories - Perko
TTITLE5=Sun Samba - Perko
TTITLE6=Coffee Break - Perko
TTITLE7=Re-organizing - Pyysalo
TTITLE8=Unknown Soldiers - Perko
TTITLE9=Every Now and Then - Perko
TTITLE10=The Price of Everything - Pyysalo
TTITLE11=Summer Children - Perko
TTITLE12=Conclusion - Pyysalo
EXTD=YEAR: 1993
EXTT0=
EXTT1=
EXTT2=
EXTT3=
EXTT4=
EXTT5=
EXTT6=
EXTT7=
EXTT8=
EXTT9=
EXTT10=
EXTT11=
EXTT12=
PLAYORDER=
